<svg version="1.1" viewBox="-0.05 -0.55 11.73 1.1" xmlns="http://www.w3.org/2000/svg">
  <!-- Subdivision level #0 (2 triangles) -->
  <g id="level-0" fill="rgb( 19, 89, 78)" transform="translate(0.000 0)" stroke-width="0.0025" stroke="black" stroke-linejoin="round" stroke-linecap="round">
    <path d="M  0.0000 -0.5000 L  0.0000  0.5000 L  1.0000  0.5000 Z" />
    <path d="M  1.0000  0.5000 L  1.0000 -0.5000 L  0.0000 -0.5000 Z" />
  </g>

  <!-- Subdivision level #1 (+2 triangles) -->
  <g id="level-1" fill="rgb( 29,134,118)" transform="translate(1.625 0)" stroke-width="0.0025" stroke="black" stroke-linejoin="round" stroke-linecap="round">
    <use href="#level-0" transform="translate(--0.500 0)" />
    <path d="M  0.0000 -0.5000 L -0.5000  0.0000 L  0.0000  0.5000 Z" />
    <path d="M  1.0000  0.5000 L  1.5000  0.0000 L  1.0000 -0.5000 Z" />
  </g>

  <!-- Subdivision level #2 (+4 triangles) -->
  <g id="level-2" fill="rgb( 38,178,157)" transform="translate(3.750 0)" stroke-width="0.0025" stroke="black" stroke-linejoin="round" stroke-linecap="round">
    <use href="#level-1" transform="translate(-1.625 0)" />
    <path d="M  0.0000 -0.5000 L -0.3536 -0.3536 L -0.5000  0.0000 Z" />
    <path d="M -0.5000  0.0000 L -0.3536  0.3536 L  0.0000  0.5000 Z" />
    <path d="M  1.0000  0.5000 L  1.3536  0.3536 L  1.5000  0.0000 Z" />
    <path d="M  1.5000  0.0000 L  1.3536 -0.3536 L  1.0000 -0.5000 Z" />
  </g>

  <!-- Subdivision level #3 (+8 triangles) -->
  <g id="level-3" fill="rgb( 48,223,196)" transform="translate(5.875 0)" stroke-width="0.0025" stroke="black" stroke-linejoin="round" stroke-linecap="round">
    <use href="#level-2" transform="translate(-3.750 0)" />
    <path d="M  0.0000 -0.5000 L -0.1913 -0.4619 L -0.3536 -0.3536 Z" />
    <path d="M -0.3536 -0.3536 L -0.4619 -0.1913 L -0.5000  0.0000 Z" />
    <path d="M -0.5000  0.0000 L -0.4619  0.1913 L -0.3536  0.3536 Z" />
    <path d="M -0.3536  0.3536 L -0.1913  0.4619 L  0.0000  0.5000 Z" />
    <path d="M  1.0000  0.5000 L  1.1913  0.4619 L  1.3536  0.3536 Z" />
    <path d="M  1.3536  0.3536 L  1.4619  0.1913 L  1.5000  0.0000 Z" />
    <path d="M  1.5000  0.0000 L  1.4619 -0.1913 L  1.3536 -0.3536 Z" />
    <path d="M  1.3536 -0.3536 L  1.1913 -0.4619 L  1.0000 -0.5000 Z" />
  </g>

  <!-- Subdivision level #4 (+16 triangles) -->
  <g id="level-4" fill="rgb( 89,229,208)" transform="translate(8.000 0)" stroke-width="0.0025" stroke="black" stroke-linejoin="round" stroke-linecap="round">
    <use href="#level-3" transform="translate(-5.875 0)" />
    <path d="M  0.0000 -0.5000 L -0.0975 -0.4904 L -0.1913 -0.4619 Z" />
    <path d="M -0.1913 -0.4619 L -0.2778 -0.4157 L -0.3536 -0.3536 Z" />
    <path d="M -0.3536 -0.3536 L -0.4157 -0.2778 L -0.4619 -0.1913 Z" />
    <path d="M -0.4619 -0.1913 L -0.4904 -0.0975 L -0.5000  0.0000 Z" />
    <path d="M -0.5000  0.0000 L -0.4904  0.0975 L -0.4619  0.1913 Z" />
    <path d="M -0.4619  0.1913 L -0.4157  0.2778 L -0.3536  0.3536 Z" />
    <path d="M -0.3536  0.3536 L -0.2778  0.4157 L -0.1913  0.4619 Z" />
    <path d="M -0.1913  0.4619 L -0.0975  0.4904 L  0.0000  0.5000 Z" />
    <path d="M  1.0000  0.5000 L  1.0975  0.4904 L  1.1913  0.4619 Z" />
    <path d="M  1.1913  0.4619 L  1.2778  0.4157 L  1.3536  0.3536 Z" />
    <path d="M  1.3536  0.3536 L  1.4157  0.2778 L  1.4619  0.1913 Z" />
    <path d="M  1.4619  0.1913 L  1.4904  0.0975 L  1.5000  0.0000 Z" />
    <path d="M  1.5000  0.0000 L  1.4904 -0.0975 L  1.4619 -0.1913 Z" />
    <path d="M  1.4619 -0.1913 L  1.4157 -0.2778 L  1.3536 -0.3536 Z" />
    <path d="M  1.3536 -0.3536 L  1.2778 -0.4157 L  1.1913 -0.4619 Z" />
    <path d="M  1.1913 -0.4619 L  1.0975 -0.4904 L  1.0000 -0.5000 Z" />
  </g>

  <!-- Subdivision level #5 (+32 triangles) -->
  <g id="level-5" fill="rgb(131,236,220)" transform="translate(10.125 0)" stroke-width="0.0025" stroke="black" stroke-linejoin="round" stroke-linecap="round">
    <use href="#level-4" transform="translate(-8.000 0)" />
    <path d="M  0.0000 -0.5000 L -0.0490 -0.4976 L -0.0975 -0.4904 Z" />
    <path d="M -0.0975 -0.4904 L -0.1451 -0.4785 L -0.1913 -0.4619 Z" />
    <path d="M -0.1913 -0.4619 L -0.2357 -0.4410 L -0.2778 -0.4157 Z" />
    <path d="M -0.2778 -0.4157 L -0.3172 -0.3865 L -0.3536 -0.3536 Z" />
    <path d="M -0.3536 -0.3536 L -0.3865 -0.3172 L -0.4157 -0.2778 Z" />
    <path d="M -0.4157 -0.2778 L -0.4410 -0.2357 L -0.4619 -0.1913 Z" />
    <path d="M -0.4619 -0.1913 L -0.4785 -0.1451 L -0.4904 -0.0975 Z" />
    <path d="M -0.4904 -0.0975 L -0.4976 -0.0490 L -0.5000  0.0000 Z" />
    <path d="M -0.5000  0.0000 L -0.4976  0.0490 L -0.4904  0.0975 Z" />
    <path d="M -0.4904  0.0975 L -0.4785  0.1451 L -0.4619  0.1913 Z" />
    <path d="M -0.4619  0.1913 L -0.4410  0.2357 L -0.4157  0.2778 Z" />
    <path d="M -0.4157  0.2778 L -0.3865  0.3172 L -0.3536  0.3536 Z" />
    <path d="M -0.3536  0.3536 L -0.3172  0.3865 L -0.2778  0.4157 Z" />
    <path d="M -0.2778  0.4157 L -0.2357  0.4410 L -0.1913  0.4619 Z" />
    <path d="M -0.1913  0.4619 L -0.1451  0.4785 L -0.0975  0.4904 Z" />
    <path d="M -0.0975  0.4904 L -0.0490  0.4976 L  0.0000  0.5000 Z" />
    <path d="M  1.0000  0.5000 L  1.0490  0.4976 L  1.0975  0.4904 Z" />
    <path d="M  1.0975  0.4904 L  1.1451  0.4785 L  1.1913  0.4619 Z" />
    <path d="M  1.1913  0.4619 L  1.2357  0.4410 L  1.2778  0.4157 Z" />
    <path d="M  1.2778  0.4157 L  1.3172  0.3865 L  1.3536  0.3536 Z" />
    <path d="M  1.3536  0.3536 L  1.3865  0.3172 L  1.4157  0.2778 Z" />
    <path d="M  1.4157  0.2778 L  1.4410  0.2357 L  1.4619  0.1913 Z" />
    <path d="M  1.4619  0.1913 L  1.4785  0.1451 L  1.4904  0.0975 Z" />
    <path d="M  1.4904  0.0975 L  1.4976  0.0490 L  1.5000  0.0000 Z" />
    <path d="M  1.5000  0.0000 L  1.4976 -0.0490 L  1.4904 -0.0975 Z" />
    <path d="M  1.4904 -0.0975 L  1.4785 -0.1451 L  1.4619 -0.1913 Z" />
    <path d="M  1.4619 -0.1913 L  1.4410 -0.2357 L  1.4157 -0.2778 Z" />
    <path d="M  1.4157 -0.2778 L  1.3865 -0.3172 L  1.3536 -0.3536 Z" />
    <path d="M  1.3536 -0.3536 L  1.3172 -0.3865 L  1.2778 -0.4157 Z" />
    <path d="M  1.2778 -0.4157 L  1.2357 -0.4410 L  1.1913 -0.4619 Z" />
    <path d="M  1.1913 -0.4619 L  1.1451 -0.4785 L  1.0975 -0.4904 Z" />
    <path d="M  1.0975 -0.4904 L  1.0490 -0.4976 L  1.0000 -0.5000 Z" />
  </g>
</svg>
